<svg xmlns="http://www.w3.org/2000/svg" viewBox="0 0 64 64">
  <rect width="64" height="64" rx="14" fill="#021A0E"/>
  <g transform="translate(-41.4 5.8) scale(0.86)">
    <path fill="#D4A84B" d="M74.5,0H72C58.7,0,47.9,10.8,47.9,24.1V37c0,13.3,10.8,24.1,24.1,24.1h2.5c13.3,0,24.1-10.8,24.1-24.1V24.1
      C98.6,10.8,87.8,0,74.5,0z M65.4,34.9c0.6,0.3,1.3,0.5,2,0.7l0.4-1.7c-3.4-0.8-5.2-3.4-5.5-6L84.2,39c-1.3,2.8-3.4,5-8.3,3.7l0,0
      c-0.7-0.2-1.3-0.4-1.9-0.7l-3-1.3c0,0,0,1.3,0,2.3c-0.9,0.4-1.8,0.9-2.6,1.6c-2,1.6-3.5,4-4.4,6.7C63.8,46.6,64.3,41.2,65.4,34.9z
       M74.5,59.3H72c-2.5,0-4.8-0.4-7-1.1c-0.3-5,1.4-9.6,4.6-12.2c1.6-1.3,3.4-1.9,5.2-1.7c-0.4,5.1,1.5,9.9,5.7,14.3
      C78.5,59,76.6,59.3,74.5,59.3z M96.9,37c0,9.6-6.1,17.8-14.5,20.9l-0.2-0.1c-4.1-4.1-6.1-8.5-5.7-13.2c0.8,0.2,1.5,0.2,2.2,0.2
      c4.5,0,6.5-3.3,7.6-6l0.3-0.8L60.7,25l-0.1,1.3c-0.3,3,1,5.8,3.2,7.6c-1.8,9.6-2.1,17.3-0.9,23.5C55.1,53.9,49.6,46.1,49.6,37V24.1
      c0-12.3,10-22.3,22.3-22.3h2.5c12.3,0,22.3,10,22.3,22.3V37z"/>
    <path fill="#D4A84B" d="M87.6,24.8l-1.8,0c0,3-0.6,6-1.6,8.1c-2.1-1-4.2-2-6.2-3c2.4-4.9,2.7-7.8,1.3-13.6l-1.7,0.4
      c1.2,5.4,1,7.9-1.2,12.4c-1.9-1.1-3.7-2.2-5.4-3.5c2-4.3,1.9-9.8-0.3-15.1l-1.7,0.7c1.9,4.6,2.1,9.5,0.5,13.2
      c-2.4-2.1-4.2-4.5-5.2-7.3l-1.7,0.6c3,8.6,12.7,13.1,22,17.4c0.8,0.4,1.6,0.7,2.3,1.1l0.8-1.6c-0.7-0.3-1.3-0.6-2-0.9
      C87,31.3,87.7,28.1,87.6,24.8z"/>
  </g>
</svg>
