<svg xmlns="http://www.w3.org/2000/svg" width="1400" height="963" viewBox="0 0 1400 963" version="1.1">
	<path d="M 676.500 0.614 C 631.213 4.967, 590.901 20.605, 554.540 47.924 C 542.518 56.957, 521.929 77.231, 512.828 89 C 485.218 124.702, 468.990 164.780, 464.408 208.582 C 462.158 230.093, 462.862 376.621, 465.287 391.663 C 476.206 459.365, 512.720 516.039, 569.301 553.103 C 597.043 571.277, 628.663 583.266, 663.140 588.684 C 679.740 591.293, 736.455 591.298, 752.901 588.693 C 778.798 584.590, 800.302 577.895, 822.500 567.025 C 884.477 536.674, 929.711 480.837, 946.468 414 C 952.605 389.519, 952.500 391.598, 952.500 295 C 952.500 206.776, 952.493 206.460, 950.179 193.658 C 933.692 102.435, 867.236 30.373, 778.398 7.386 C 755.667 1.504, 748.859 0.787, 713 0.494 C 695.125 0.348, 678.700 0.402, 676.500 0.614 M 672.500 18.668 C 630.305 23.852, 592.651 39.406, 560.788 64.814 C 516.437 100.180, 487.443 152.764, 481.009 209.500 C 480.222 216.433, 479.986 244.650, 480.238 301.500 C 480.634 390.654, 480.408 386.745, 486.578 411.245 C 501.585 470.832, 544.033 522.812, 601.191 551.596 C 608.084 555.067, 608.241 555.097, 607.679 552.827 C 602.635 532.457, 599.816 479.687, 601.919 445 C 603.983 410.937, 609.264 367.113, 614.835 337.807 L 616.678 328.114 611.251 322.807 C 592.907 304.869, 583.912 280.850, 585.624 254.375 C 585.987 248.755, 586.598 243.651, 586.981 243.031 C 587.438 242.291, 630.381 263.366, 712.089 304.430 C 830.603 363.993, 836.491 367.079, 836.306 369.524 C 836.067 372.667, 827.580 390.629, 822.820 398.061 C 814.607 410.885, 804.771 419.970, 792.500 426.065 C 780.904 431.824, 772.638 433.289, 754.766 432.752 L 740.032 432.310 739.392 435.723 C 738.534 440.297, 739.785 457.713, 741.639 467 C 743.795 477.802, 749.301 493.753, 754.452 504.118 C 762.868 521.056, 778.396 542.395, 791.642 555.227 L 796.522 559.954 807.511 555.210 C 875.311 525.941, 924.902 460.586, 934.391 388 C 936.637 370.820, 937.401 358, 936.180 358 C 935.484 358, 935.016 334.172, 934.740 284.750 C 934.295 204.703, 934.291 204.644, 928.004 179.858 C 910.292 110.025, 857.421 52.759, 788.876 29.165 C 762.803 20.190, 746.390 17.999, 706.500 18.168 C 689.450 18.240, 674.150 18.466, 672.500 18.668 M 674.573 105.089 C 670.763 106.701, 667.508 108.158, 667.340 108.327 C 667.171 108.495, 668.362 112.083, 669.986 116.300 C 673.380 125.115, 677.064 138.534, 679.650 151.500 C 682.219 164.384, 682.245 198.046, 679.694 209.875 C 677.406 220.487, 673.242 233.732, 671.941 234.536 C 670.483 235.438, 657.017 222.053, 647.635 210.376 C 638.190 198.621, 630.524 186.067, 625.352 173.886 L 621.695 165.273 613.598 168.038 C 604.182 171.253, 604.371 170.438, 610.061 183.329 C 618.744 203.001, 630.679 219.775, 648.961 238 C 675.648 264.604, 708.590 286.324, 763.500 313.519 C 788.977 326.138, 840.157 350.204, 840.549 349.750 C 841.361 348.811, 848.065 334.735, 847.814 334.496 C 847.641 334.331, 843.477 332.342, 838.560 330.075 C 833.643 327.808, 829.477 325.810, 829.301 325.635 C 829.126 325.459, 830.785 321.467, 832.989 316.764 C 840.963 299.749, 847 270.725, 847 249.408 L 847 240 838 240 L 829 240 829 248.276 C 829 267.598, 823.191 296.723, 815.985 313.535 L 814.101 317.929 798.301 310.341 C 789.610 306.168, 776.073 299.676, 768.217 295.913 L 753.935 289.073 756.848 283.286 C 771.463 254.256, 777.036 226.531, 774.059 197.658 C 772.834 185.774, 767.915 159.582, 766.677 158.343 C 766.020 157.687, 756.501 159.491, 752.365 161.055 L 750.231 161.863 752.060 170.781 C 759.771 208.374, 758.337 234.001, 746.941 262.265 C 743.508 270.782, 739.426 279.731, 738.481 280.812 C 737.798 281.594, 696.094 255.040, 689.746 249.781 L 686.992 247.500 690.973 236.260 C 697.250 218.540, 699.077 208.229, 699.702 187 C 700.162 171.377, 699.915 166.216, 698.115 153.813 C 695.144 133.342, 685.731 101.866, 682.644 102.079 C 682.015 102.122, 678.383 103.477, 674.573 105.089 M 603 272.375 C 603 277.508, 608.114 290.918, 612.823 298.131 C 619.439 308.266, 628.453 316.178, 639.546 321.588 C 644.521 324.015, 649.105 326, 649.731 326 C 650.357 326, 651.980 326.422, 653.336 326.938 L 655.802 327.875 653.777 335.938 C 652.664 340.372, 651.246 343.991, 650.626 343.980 C 650.007 343.969, 645.708 342.624, 641.074 340.989 C 636.440 339.355, 632.556 338.127, 632.443 338.259 C 631.967 338.818, 627.919 364.910, 625.581 382.500 C 620.925 417.517, 619.896 430.952, 619.411 463 C 618.998 490.378, 619.115 494.042, 620.306 491 C 629.157 468.393, 638.537 453.334, 652.433 439.425 C 661.912 429.936, 668.873 424.666, 678.787 419.473 L 686 415.695 686 404.847 C 686 398.533, 686.404 394, 686.967 394 C 687.498 394, 695.139 397.126, 703.946 400.946 C 724.748 409.970, 732.016 412.547, 742.011 414.443 C 751.644 416.270, 765.709 416.465, 773.201 414.876 C 788.203 411.692, 800.980 401.021, 810.479 383.740 L 814.140 377.079 790.820 365.418 C 777.994 359.004, 761.200 350.499, 753.500 346.518 C 745.800 342.537, 711.150 324.982, 676.500 307.506 C 641.850 290.031, 611.138 274.410, 608.250 272.793 L 603 269.853 603 272.375 M 703.675 429.606 C 675.701 435.694, 649.807 462.362, 637.212 498.057 C 631.427 514.451, 627.427 540.105, 628.190 555.909 L 628.500 562.317 633.802 564.115 C 652.013 570.292, 674.579 573, 707.827 573 C 735.288 573, 741.971 572.512, 764.681 568.847 L 777.862 566.720 768.836 556.110 C 751.285 535.480, 738.321 513.216, 730.979 491.094 C 725.280 473.922, 723.829 465.593, 723.127 446 L 722.500 428.500 716.500 428.311 C 713.200 428.206, 707.429 428.789, 703.675 429.606 M 33.176 721.004 C 16.410 724.559, 6.093 735.612, 5.212 750.962 C 4.105 770.263, 12.716 778.833, 40.500 786.084 C 57.076 790.409, 61.341 792.725, 62.507 798.031 C 63.483 802.474, 60.784 806.535, 55.519 808.546 C 46.709 811.911, 32.514 808.848, 20.864 801.068 C 17.513 798.831, 14.647 797, 14.494 797 C 14.341 797, 10.940 800.859, 6.936 805.575 L -0.344 814.150 2.578 816.589 C 29.425 838.995, 70.274 837.455, 82.813 813.563 C 85.143 809.124, 85.472 807.330, 85.485 799 C 85.497 791.592, 85.073 788.640, 83.563 785.597 C 79.040 776.480, 70.479 771.188, 51.339 765.678 C 30.488 759.675, 25.490 755.604, 29.139 747.595 C 32.731 739.712, 51.128 740.369, 64.952 748.876 C 67.745 750.594, 70.237 752, 70.489 752 C 70.742 752, 73.696 747.914, 77.054 742.919 C 82.828 734.333, 83.061 733.759, 81.330 732.393 C 77.522 729.386, 66.088 724.078, 60.050 722.513 C 52.355 720.519, 39 719.769, 33.176 721.004 M 181.698 720.716 C 181.444 721.147, 175.945 737.700, 169.477 757.500 L 157.718 793.500 154.926 785 C 153.390 780.325, 148.707 765.025, 144.519 751 C 140.332 736.975, 136.486 724.487, 135.974 723.250 C 135.075 721.078, 134.587 721, 121.914 721 C 109.814 721, 108.840 721.137, 109.479 722.750 C 109.860 723.712, 118.193 748.575, 127.998 778 L 145.824 831.500 156.625 831.500 L 167.426 831.500 179.150 797 C 185.598 778.025, 191.033 762.106, 191.229 761.624 C 191.424 761.142, 196.965 776.667, 203.542 796.124 L 215.500 831.500 226.156 831.783 L 236.811 832.066 254.906 777.783 C 264.858 747.927, 273 722.937, 273 722.250 C 273 721.317, 269.857 721, 260.622 721 L 248.243 721 247.252 724.750 C 246.707 726.813, 243.906 736.150, 241.028 745.500 C 238.151 754.850, 233.659 769.648, 231.048 778.385 L 226.300 794.270 216.594 764.385 C 211.256 747.948, 205.864 731.350, 204.613 727.500 L 202.338 720.500 192.249 720.216 C 186.700 720.060, 181.952 720.285, 181.698 720.716 M 652 721.369 C 639.868 724.020, 629.757 732.193, 626.508 741.976 C 624.644 747.588, 624.373 757.957, 625.938 763.771 C 628.626 773.753, 639.050 780.476, 660.549 786.095 C 678.736 790.849, 682 793.017, 682 800.345 C 682 802.988, 681.273 804.434, 678.971 806.371 C 671.280 812.843, 655.191 810.572, 640.385 800.925 C 634.700 797.221, 633.782 796.904, 632.714 798.278 C 632.046 799.136, 628.859 803.027, 625.632 806.925 C 618.748 815.238, 618.630 814.813, 629.877 822.171 C 650.466 835.643, 680.503 835.992, 695.341 822.931 C 704.256 815.084, 708.026 801.482, 704.576 789.615 C 701.269 778.236, 691.112 771.020, 670.614 765.483 C 653.461 760.849, 648 757.532, 648 751.746 C 648 747.574, 649.699 745.024, 653.548 743.415 C 661.203 740.217, 674.495 742.631, 685.076 749.142 C 687.862 750.856, 690.483 751.863, 690.901 751.379 C 691.319 750.896, 694.248 746.751, 697.410 742.168 C 704.106 732.465, 704.474 733.408, 691.500 727.048 C 678.818 720.831, 664.130 718.719, 652 721.369 M 997.698 720.716 C 997.443 721.147, 991.986 737.683, 985.571 757.463 C 979.156 777.243, 973.776 793.557, 973.616 793.718 C 973.455 793.878, 972.406 790.745, 971.284 786.755 C 968.496 776.839, 953.191 726.633, 952.006 723.516 C 951.054 721.013, 950.986 721, 938.525 721 C 928.516 721, 926 721.278, 926 722.386 C 926 723.148, 934.273 748.011, 944.385 777.636 L 962.769 831.500 973.564 831.500 L 984.359 831.500 996.210 796.553 C 1002.728 777.332, 1008.210 761.457, 1008.392 761.275 C 1008.574 761.092, 1013.800 776.144, 1020.006 794.722 C 1026.211 813.300, 1031.689 829.288, 1032.179 830.250 C 1032.942 831.747, 1034.571 832, 1043.453 832 L 1053.836 832 1064.334 799.750 C 1081.414 747.282, 1089 723.423, 1089 722.174 C 1089 721.339, 1085.450 721, 1076.693 721 L 1064.387 721 1054.539 753.750 C 1049.123 771.763, 1044.134 788.075, 1043.453 790 C 1041.908 794.369, 1043.211 797.639, 1029.506 755.004 L 1018.415 720.500 1008.288 720.216 C 1002.717 720.060, 997.952 720.285, 997.698 720.716 M 306.459 722.250 C 306.196 722.938, 306.097 747.575, 306.240 777 L 306.500 830.500 348 830.500 L 389.500 830.500 389.784 819.750 L 390.068 809 360.534 809 L 331 809 331 797.500 L 331 786 356.500 786 L 382 786 382 775.500 L 382 765 356.500 765 L 331 765 331 754.015 L 331 743.031 359.750 742.765 L 388.500 742.500 388.784 731.750 L 389.068 721 348.002 721 C 316.072 721, 306.831 721.278, 306.459 722.250 M 424.241 775.156 L 424.500 829.500 451 829.464 C 472.642 829.435, 478.640 829.120, 483.717 827.743 C 509.174 820.843, 524.970 800.839, 524.970 775.500 C 524.970 750.857, 510.072 731.451, 485 723.434 C 480.465 721.984, 474.628 721.600, 451.741 721.244 L 423.983 720.813 424.241 775.156 M 562 776 L 562 831 574 831 L 586 831 586 776 L 586 721 574 721 L 562 721 562 776 M 740.459 722.250 C 740.196 722.938, 740.097 747.575, 740.240 777 L 740.500 830.500 752.750 830.781 L 765 831.062 765 809.031 L 765 787 786.980 787 L 808.961 787 809.230 808.750 L 809.500 830.500 821.500 830.500 L 833.500 830.500 833.500 776 L 833.500 721.500 821.250 721.219 L 809 720.938 809 742.969 L 809 765 787 765 L 765 765 765 743 L 765 721 752.969 721 C 744.265 721, 740.805 721.346, 740.459 722.250 M 1123.459 722.250 C 1123.196 722.938, 1123.097 747.575, 1123.240 777 L 1123.500 830.500 1135.500 830.500 L 1147.500 830.500 1147.759 775.750 L 1148.017 721 1135.977 721 C 1127.267 721, 1123.805 721.346, 1123.459 722.250 M 1189 775.981 L 1189 831.023 1228.250 830.762 L 1267.500 830.500 1267.783 819.250 L 1268.066 808 1241.043 808 L 1214.021 808 1213.761 764.750 L 1213.500 721.500 1201.250 721.219 L 1189 720.938 1189 775.981 M 1299.241 775.156 L 1299.500 829.500 1326 829.464 C 1347.642 829.435, 1353.640 829.120, 1358.717 827.743 C 1384.174 820.843, 1399.970 800.839, 1399.970 775.500 C 1399.970 750.857, 1385.072 731.451, 1360 723.434 C 1355.465 721.984, 1349.628 721.600, 1326.741 721.244 L 1298.983 720.813 1299.241 775.156 M 449 776.502 L 449 809.192 462.750 808.846 C 475.400 808.528, 476.955 808.277, 482.182 805.710 C 493.016 800.389, 499.397 789.776, 499.444 777 C 499.493 763.426, 493.576 752.952, 482.623 747.227 C 477.903 744.760, 476.378 744.520, 463.250 744.181 L 449 743.812 449 776.502 M 1324 776.502 L 1324 809.192 1337.750 808.846 C 1350.400 808.528, 1351.955 808.277, 1357.182 805.710 C 1368.016 800.389, 1374.397 789.776, 1374.444 777 C 1374.493 763.426, 1368.576 752.952, 1357.623 747.227 C 1352.903 744.760, 1351.378 744.520, 1338.250 744.181 L 1324 743.812 1324 776.502 M 137.519 890.200 C 137.268 890.915, 136.935 902.300, 136.781 915.500 C 136.524 937.407, 136.326 939.796, 134.500 942.895 C 130.904 949.001, 127.848 950.500, 119 950.500 C 110.500 950.500, 107.809 949.300, 103.562 943.618 C 101.642 941.049, 101.465 939.121, 101 915.679 L 100.500 890.500 94.250 890.202 L 88 889.905 88 914.271 C 88 942.134, 88.760 946.514, 94.738 953.132 C 101.104 960.178, 104.793 961.503, 118 961.483 C 127.881 961.468, 130.080 961.158, 133.616 959.280 C 140.230 955.770, 143.709 952.293, 146.699 946.204 L 149.500 940.500 149.500 915 L 149.500 889.500 143.738 889.200 C 139.690 888.989, 137.840 889.286, 137.519 890.200 M -0 925.903 L 0 962 6.500 962 L 13 962 13 950.623 L 13 939.247 24.750 938.767 C 41.348 938.089, 48.605 934.493, 53.025 924.754 C 57.122 915.727, 55.123 904.752, 48.150 897.992 C 41.561 891.604, 38.379 890.795, 17.750 890.263 L -0 889.806 -0 925.903 M 186.750 890.572 C 186.338 890.991, 186 907.008, 186 926.167 L 186 961 192.500 961 L 199 961 199 948.500 L 199 936 206.801 936 L 214.603 936 223.064 948.250 L 231.526 960.500 238.763 960.794 C 242.743 960.955, 246 960.846, 246 960.552 C 246 960.257, 241.909 954.326, 236.909 947.373 C 230.003 937.770, 228.140 934.526, 229.159 933.881 C 229.896 933.413, 230.975 933.024, 231.556 933.015 C 232.136 933.007, 234.161 931.857, 236.055 930.460 C 243.483 924.979, 246.421 915.399, 243.623 905.776 C 241.813 899.549, 238.502 896.016, 231.500 892.839 C 226.971 890.783, 224.665 890.534, 207 890.190 C 196.275 889.982, 187.162 890.154, 186.750 890.572 M 281.683 890.650 C 281.307 891.026, 281 907.458, 281 927.167 L 281 963 308.550 963 L 336.100 963 335.800 957.250 L 335.500 951.500 314.750 951.230 L 294 950.959 294 941.480 L 294 932 312 932 L 330 932 330 926 L 330 920 312 920 L 294 920 294 911 L 294 902 314.550 902 L 335.100 902 334.800 896.250 L 334.500 890.500 308.433 890.234 C 294.096 890.087, 282.059 890.275, 281.683 890.650 M 465.765 890.569 C 465.405 890.928, 465.962 893.535, 467.002 896.361 C 468.042 899.187, 472.761 912.300, 477.488 925.500 C 482.216 938.700, 487.229 952.538, 488.629 956.250 L 491.175 963 496.483 963 L 501.792 963 505.757 951.750 C 507.938 945.563, 511.641 934.650, 513.986 927.500 C 516.331 920.350, 518.531 914.189, 518.875 913.808 C 519.219 913.428, 523.313 924.340, 527.973 938.058 L 536.446 963 541.973 962.994 L 547.500 962.988 559.295 928.744 C 565.782 909.910, 571.353 893.466, 571.674 892.201 C 572.247 889.950, 572.118 889.909, 565.411 890.201 L 558.563 890.500 550.351 915.847 C 545.835 929.788, 541.923 941.410, 541.659 941.674 C 541.394 941.939, 537.957 932.333, 534.020 920.328 C 530.083 908.322, 526.149 896.566, 525.277 894.203 L 523.692 889.906 518.596 890.203 L 513.500 890.500 505 916.238 C 500.325 930.394, 496.275 941.968, 496 941.959 C 495.725 941.951, 491.675 930.369, 487 916.222 L 478.500 890.500 472.459 890.208 C 469.136 890.047, 466.124 890.209, 465.765 890.569 M 606.710 890.623 C 606.320 891.014, 606 907.233, 606 926.667 L 606 962 612.513 962 L 619.025 962 618.763 926.250 L 618.500 890.500 612.960 890.206 C 609.913 890.045, 607.101 890.232, 606.710 890.623 M 658.667 890.667 C 658.300 891.033, 658 907.233, 658 926.667 L 658 962 683.500 962 L 709 962 709 956 L 709 950 690 950 L 671 950 671 920 L 671 890 665.167 890 C 661.958 890, 659.033 890.300, 658.667 890.667 M 742.667 890.667 C 742.300 891.033, 742 907.275, 742 926.759 L 742 962.184 761.275 961.842 L 780.549 961.500 787.209 958.219 C 795.422 954.174, 802.071 947.083, 805.041 939.202 C 808.145 930.964, 807.509 917.723, 803.649 910.216 C 798.396 900.001, 789.109 893.296, 777.040 891.008 C 771.142 889.889, 743.716 889.617, 742.667 890.667 M 843 926.500 L 843 963 870 963 L 897 963 897 957 L 897 951 876.500 951 L 856 951 856 941.500 L 856 932 874.050 932 L 892.100 932 891.800 926.250 L 891.500 920.500 873.750 920.227 L 856 919.954 856 910.977 L 856 902 876 902 L 896 902 896 896 L 896 890 869.500 890 L 843 890 843 926.500 M 932 925.385 L 932 961 938.500 961 L 945 961 945 948.500 L 945 936 952.447 936 L 959.893 936 968.638 948.500 L 977.383 961 984.742 961 L 992.101 961 987.323 954.250 C 984.695 950.538, 980.413 944.575, 977.809 941 L 973.073 934.500 977.787 932.386 C 980.379 931.223, 983.491 929.192, 984.702 927.872 C 990.649 921.393, 991.698 910.711, 987.250 901.929 C 984.897 897.284, 983.649 896.069, 978.607 893.519 C 972.742 890.551, 972.622 890.536, 952.357 890.154 L 932 889.770 932 925.385 M 1027 926.048 L 1027 962.095 1033.250 961.798 L 1039.500 961.500 1039.500 936.750 C 1039.500 923.137, 1039.725 912.027, 1040 912.060 C 1040.275 912.094, 1049.050 923.320, 1059.500 937.007 L 1078.500 961.893 1084.263 961.946 L 1090.025 962 1089.763 926.250 L 1089.500 890.500 1083.268 890.203 L 1077.035 889.905 1076.768 914.418 L 1076.500 938.931 1069 929.272 C 1064.875 923.959, 1056.217 912.950, 1049.759 904.806 L 1038.019 890 1032.509 890 L 1027 890 1027 926.048 M 1128.683 890.650 C 1128.307 891.026, 1128 907.458, 1128 927.167 L 1128 963 1155.550 963 L 1183.100 963 1182.800 957.250 L 1182.500 951.500 1161.750 951.230 L 1141 950.959 1141 941.480 L 1141 932 1159 932 L 1177 932 1177 926 L 1177 920 1159 920 L 1141 920 1141 911 L 1141 902 1161.550 902 L 1182.100 902 1181.800 896.250 L 1181.500 890.500 1155.433 890.234 C 1141.096 890.087, 1129.059 890.275, 1128.683 890.650 M 1230.821 891.395 C 1219.476 894.450, 1212.777 904.357, 1214.461 915.587 C 1215.746 924.156, 1222.303 928.858, 1239.248 933.361 C 1250.173 936.264, 1253.755 938.175, 1254.602 941.551 C 1256.873 950.600, 1243.451 955.217, 1231.308 949.563 C 1228.453 948.234, 1224.731 946.122, 1223.038 944.870 L 1219.959 942.594 1216.730 946.512 C 1214.953 948.667, 1213.500 950.896, 1213.500 951.465 C 1213.500 953.045, 1222.352 958.614, 1228.550 960.933 C 1235.953 963.703, 1249.710 963.787, 1255.500 961.098 C 1263.808 957.240, 1267.440 951.504, 1267.390 942.318 C 1267.328 930.979, 1261.849 926.088, 1243.500 920.991 C 1232.829 918.027, 1228.182 915.572, 1227.408 912.488 C 1224.518 900.976, 1240.266 897.480, 1254.185 906.543 L 1257.870 908.942 1260.935 904.774 C 1262.621 902.482, 1264 900.082, 1264 899.442 C 1264 897.547, 1252.969 892.260, 1246.566 891.087 C 1239.242 889.745, 1236.768 889.794, 1230.821 891.395 M 1315.821 891.395 C 1304.298 894.497, 1297.049 906.041, 1299.922 916.710 C 1302.195 925.151, 1307.806 928.992, 1324.248 933.361 C 1335.173 936.264, 1338.755 938.175, 1339.602 941.551 C 1341.873 950.600, 1328.451 955.217, 1316.308 949.563 C 1313.453 948.234, 1309.731 946.122, 1308.038 944.870 L 1304.959 942.594 1301.730 946.512 C 1299.953 948.667, 1298.500 950.896, 1298.500 951.465 C 1298.500 953.045, 1307.352 958.614, 1313.550 960.933 C 1321.995 964.092, 1334.900 963.851, 1341.818 960.403 C 1348.980 956.834, 1352.508 950.896, 1352.454 942.500 C 1352.382 931.195, 1347.224 926.315, 1330.285 921.527 C 1317.076 917.793, 1313.334 915.799, 1312.513 912.058 C 1310.144 901.272, 1325.271 897.712, 1338.318 905.987 L 1342.892 908.887 1346.359 904.207 C 1348.265 901.633, 1349.607 899.173, 1349.340 898.741 C 1348.219 896.927, 1336.968 892.095, 1331.520 891.088 C 1324.252 889.745, 1321.769 889.793, 1315.821 891.395 M 755 925.889 L 755 950 765.750 949.978 C 777.251 949.955, 782.831 948.366, 787.845 943.688 C 792.990 938.888, 795.386 930.015, 793.939 921.123 C 792.716 913.613, 789.011 908.642, 782.121 905.269 C 777.282 902.900, 775.005 902.466, 765.750 902.148 L 755 901.779 755 925.889 M 13 915.500 L 13 928 22.032 928 C 36.312 928, 42 924.300, 42 915.011 C 42 906.301, 36.322 903.016, 21.250 903.006 L 13 903 13 915.500 M 200 915 L 200 927 208.818 927 C 213.788 927, 219.866 926.338, 222.743 925.484 C 232.288 922.649, 235.868 914.562, 230.436 908.106 C 227.081 904.119, 222.703 903.012, 210.250 903.006 L 200 903 200 915 M 945 915 L 945 927 952.951 927 C 969.754 927, 977 923.298, 977 914.712 C 977 905.820, 971.734 903, 955.134 903 L 945 903 945 915 M 368.667 948.667 C 368.300 949.033, 368 952.408, 368 956.167 L 368 963 375 963 L 382 963 382 955.500 L 382 948 375.667 948 C 372.183 948, 369.033 948.300, 368.667 948.667 M 1386.667 948.667 C 1386.300 949.033, 1386 952.408, 1386 956.167 L 1386 963 1393 963 L 1400 963 1400 955.500 L 1400 948 1393.667 948 C 1390.183 948, 1387.033 948.300, 1386.667 948.667" stroke="none" fill="black" fill-rule="evenodd"/>
</svg>